<svg xmlns="http://www.w3.org/2000/svg" width="32.206" height="42.943" viewBox="0 0 32.206 42.943"><g transform="translate(-64.011)"><g transform="translate(66.692 0)"><g transform="translate(0)"><path d="M124.764,13.629c-3.578-2.81-7.1-5.618-10.666-8.428A4.619,4.619,0,0,1,112.115.547c.054-.486-.217-.65-.752-.486a4.525,4.525,0,0,0-2.832,2.217,3.639,3.639,0,0,1-3.69,2.163c-2.408-.11-3.9,1.192-5.183,3.033a17.975,17.975,0,0,0-2.614,6.5,37.337,37.337,0,0,0-.958,7.357c-.11,1.9-.054,3.739-.11,5.626v5.253H119.6v-3.8a3.6,3.6,0,0,0-.99-2.767c-1.181-1.17-2.434-2.265-2.434-2.265a10.323,10.323,0,0,1-1.629-1.672l-4.356-5.636c.271.22.534.429.805.65a4.905,4.905,0,0,0,4.431,1.025,3.577,3.577,0,0,1,2.778.429,16.143,16.143,0,0,0,1.53.864,2.985,2.985,0,0,0,3.666-.725c.55-.66,1.1-1.321,1.651-1.97A1.882,1.882,0,0,0,124.764,13.629Z" transform="translate(-95.976 0)"/></g></g><g transform="translate(64.011 34.891)"><g transform="translate(0)"><path d="M93.392,422.108l-2.684-5.371a1.344,1.344,0,0,0-1.2-.741H68.037a1.344,1.344,0,0,0-1.2.741l-2.684,5.368a1.344,1.344,0,0,0,1.2,1.943h26.84a1.351,1.351,0,0,0,1.143-.636A1.336,1.336,0,0,0,93.392,422.108Z" transform="translate(-64.011 -415.997)"/></g></g></g></svg>